<svg version="1.1" xmlns="http://www.w3.org/2000/svg" xmlns:xlink="http://www.w3.org/1999/xlink" width="80.69036" height="80.69036" viewBox="0,0,80.69036,80.69036"><defs><linearGradient x1="232.28379" y1="116.53364" x2="312.97414" y2="116.53364" gradientUnits="userSpaceOnUse" id="color-1"><stop offset="0" stop-color="#8dc63f"/><stop offset="1" stop-color="#006838"/></linearGradient><radialGradient cx="271.40638" cy="116.35914" r="35.36276" gradientUnits="userSpaceOnUse" id="color-2"><stop offset="0" stop-color="#d7df23"/><stop offset="1" stop-color="#009444"/></radialGradient></defs><g transform="translate(-232.28378,-76.18768)"><g data-paper-data="{&quot;isPaintingLayer&quot;:true}" fill-rule="nonzero" stroke="none" stroke-width="1" stroke-linecap="butt" stroke-linejoin="miter" stroke-miterlimit="10" stroke-dasharray="" stroke-dashoffset="0" style="mix-blend-mode: normal"><path d="M312.97414,116.53286c0,22.24526 -18.09797,40.34518 -40.34518,40.34518c-22.24623,0 -40.34518,-18.09991 -40.34518,-40.34518c0,-22.24623 18.09797,-40.34518 40.34518,-40.34518c22.2472,0 40.34518,18.09991 40.34518,40.34518z" fill="url(#color-1)"/><path d="M236.043,116.35935c0,-19.53066 15.83272,-35.36339 35.36339,-35.36339c19.53066,0 35.36339,15.83272 35.36339,35.36339c0,19.53066 -15.83272,35.36339 -35.36339,35.36339c-19.53066,0 -35.36339,-15.83272 -35.36339,-35.36339z" fill="url(#color-2)"/></g></g></svg>